<svg xmlns="http://www.w3.org/2000/svg" xmlns:xlink="http://www.w3.org/1999/xlink" viewBox="0 0 500 500"><defs><clipPath id="r"><path d="M74.8-59.3l.9 12.8H7.5L7-59.3h67.8" transform="translate(-7 59.3)" fill="none"/></clipPath><clipPath id="s"><path d="M-35 112.8h823V-475H-35z" transform="translate(35 475)" fill="none"/></clipPath><clipPath id="t"><path d="M41.5-52.8h9.3l1.3-6.5-11.5.6 1 5.9" transform="translate(-40.6 59.3)" fill="none"/></clipPath><clipPath id="u"><path d="M16-48.9h9.3l1.2-6.5-11.5.7 1 5.9" transform="translate(-15 55.4)" fill="none"/></clipPath><clipPath id="v"><path d="M278.1-59.3l-.1 12.8h-96.3v-12.8h96.4" transform="translate(-181.7 59.3)" fill="none"/></clipPath><clipPath id="w"><path d="M219.7-56.3l7.7.4-.9 5.9h-9.3l-.5-2.7h-7l-1.1-6.5 11.4.6-.3 2.3" transform="translate(-208.6 59.2)" fill="none"/></clipPath><clipPath id="x"><path d="M76.5-11.4h-8.4L67-34.7h7.6l1.9 23.3m-9.4 0H43v-.3h6l-3.5-23h1.9l3.2 23h12.5l-1.1-23h4l1 23.3m-25.1 0H17.2l-1.1-23.3h7.8l7 23h11v.3M74.5-36H67l-.4-9.7 7.3.2.5 6.4.2 3.1M66-36h-4l-.4-9H45.9l1.3 9h-1.9L44-45h-2.7v-1.1l24 .4.6 9.7m-42.4 0H16l-.5-10.6 24.7.5v1H20.8l2.8 9" transform="translate(-15.5 46.6)" fill="none"/></clipPath><clipPath id="y"><path transform="translate(-.5 .2)" fill="none" d="M0 0h63v36H0z"/></clipPath><clipPath id="z"><path d="M15-10.6h62.3V-47H15z" transform="translate(-15 47)" fill="none"/></clipPath><clipPath id="A"><path d="M73.1-53.1zm-32.1 0zm-25.8 0zm57.9-.9h-7l-1.4-29.7H71zM65-54H50.3L46-83.7h2L52-54zm-25.2 0H15.2l-1.5-29.7h7.6L30.1-54zM71-85h-6.3l-.3-8h-.1v-.2l6.2.1zm-23 0h-2.1l-1.2-8H39v-1l24 .7.1.2H46.8zm-27 0h-7.2l-.5-9.6 24.7.7v.8H18.5z" transform="translate(-13.2 94.6)" fill="none"/></clipPath><clipPath id="B"><path fill="none" d="M0 0h62v42H0z"/></clipPath><clipPath id="C"><path d="M13-52.7h61.1V-95H13z" transform="translate(-13 95)" fill="none"/></clipPath><clipPath id="F"><path d="M57.5-54.2L56.1-84l1.4 29.7m-1.5-31l-.4-8 .4 8" transform="translate(-55.6 93.3)" fill="none"/></clipPath><clipPath id="G"><path transform="translate(-.4 .2)" fill="none" d="M0 0h4v41H0z"/></clipPath><clipPath id="H"><path d="M55-54h3.5v-40H55z" transform="translate(-55 94)" fill="none"/></clipPath><clipPath id="I"><path fill="none" d="M0 0h21.2v41.1H0z"/></clipPath><clipPath id="K"><path d="M36-55.6l-1.4-29.7 1.5 29.7" transform="translate(-34.6 85.3)" fill="none"/></clipPath><clipPath id="L"><path transform="translate(.5 .3)" fill="none" d="M0 0h1v31H0z"/></clipPath><clipPath id="M"><path d="M34-55.4h2.4V-86H34z" transform="translate(-34 86)" fill="none"/></clipPath><clipPath id="O"><path fill="none" d="M0 0h34.1v41.1H0z"/></clipPath><clipPath id="Q"><path fill="none" d="M0 0h18.8v35.3H0z"/></clipPath><clipPath id="S"><path d="M41.6-36.2h-3.5l-.5-9 .5 9h3.5m-4.6 0l-.4-9 .4 9" transform="translate(-36.6 45.3)" fill="none"/></clipPath><clipPath id="T"><path transform="translate(-.2 -.4)" fill="none" d="M0 0h7v10H0z"/></clipPath><clipPath id="U"><path d="M36-35.4h5.9V-46H36z" transform="translate(-36 46)" fill="none"/></clipPath><clipPath id="X"><path fill="none" d="M0 0h30.6v35.3H0z"/></clipPath><clipPath id="Z"><path d="M69.6-130.2l2.6 38.6H5.7L4-130.2h65.5" transform="translate(-4.1 130.2)" fill="none"/></clipPath><clipPath id="aa"><path d="M69.2-126.5l-64.5-.8v-2.2H69l.2 3" transform="translate(-4.7 129.5)" fill="none"/></clipPath><clipPath id="ab"><path d="M41-53.5l-1.3-29.7h24l1.5 29.7H41m-25.7 0l-1.5-29.7h24.7L40-53.5H15.4m-2.1-42.9h24.6l.6 11.8H13.8l-.5-11.8m49.8 0l.6 11.8H39.6L39-96.4h24m10.8 42.9h-7.6l-1.4-29.7h7v-1.4h-7l-.6-11.8h6.6v-1H12.2l2.1 44.8H74v-1" transform="translate(-12.2 97.3)" fill="none"/></clipPath><clipPath id="ac"><path d="M43.1-11l-1-23.3h24l1.1 23.2h-24m-25.8 0l-1.1-23.2H41l1 23.2H17.5m-1.8-36.4h24.7l.6 11.8H16.2l-.6-11.8m49.9 0l.5 11.8H42l-.6-11.8h24M77-11h-8.6l-1.1-23.2h8.1v-1.4H67l-.6-11.8h8l-.1-1H14.5L16.4-10H77v-1" transform="translate(-14.5 48.4)" fill="none"/></clipPath><clipPath id="ad"><path d="M62.8-92.7l-6.2-.2-.2-3.6h6.1l.3 3.8" transform="translate(-56.4 96.5)" fill="none"/></clipPath><clipPath id="ae"><path transform="translate(0 -.4)" fill="none" d="M0 0h7v4H0z"/></clipPath><clipPath id="af"><path d="M56-92.3h7V-97h-7z" transform="translate(-56 97)" fill="none"/></clipPath><clipPath id="ag"><path d="M55.7-93l-.2-3.5.2 3.6" transform="translate(-55.5 96.5)" fill="none"/></clipPath><clipPath id="ah"><path d="M63.1-93L39-93.5l-.2-2.9H63l.2 3.6m-25.2-.7l-24.7-.6-.1-2.3h24.7l.1 3" transform="translate(-13.1 96.5)" fill="none"/></clipPath><clipPath id="ai"><path transform="translate(0 -.4)" fill="none" d="M0 0h51v4H0z"/></clipPath><clipPath id="aj"><path d="M13-92.3h50.6V-97H13z" transform="translate(-13 97)" fill="none"/></clipPath><clipPath id="al"><path d="M13.5-94.1l-.2-3.2.2 3.2m-8-.2v-3 3" transform="translate(-5.5 97.3)" fill="none"/></clipPath><clipPath id="am"><path d="M64.3-92.8h-1l-.2-3.6H39v3h-1l-.2-3H13.3v2.3h-1l-.1-3.2h58l.1 1h-6.1l.1 3.5" transform="translate(-12.2 97.3)" fill="none"/></clipPath><clipPath id="an"><path d="M66.2-45.4H59l-.1-2.2H66l.1 2.2" transform="translate(-58.8 47.6)" fill="none"/></clipPath><clipPath id="ao"><path transform="translate(-.5)" fill="none" d="M0 0h10v3H0z"/></clipPath><clipPath id="ap"><path d="M58-44.5h9.4V-48H58z" transform="translate(-58 48)" fill="none"/></clipPath><clipPath id="as"><path d="M61.6-45.5l-.1-2.1v2m-24-.3l-.1-1.7v1.7" transform="translate(-37.4 47.6)" fill="none"/></clipPath><clipPath id="at"><path d="M61.6-45.5L37.5-46l-.1-1.7h24l.2 2" transform="translate(-37.4 47.6)" fill="none"/></clipPath><clipPath id="au"><path transform="translate(.2)" fill="none" d="M0 0h24v3H0z"/></clipPath><clipPath id="av"><path d="M37-44.5h24.7V-48H37z" transform="translate(-37 48)" fill="none"/></clipPath><clipPath id="ax"><path d="M40.2-46v-1.6 1.6m-24.7-.4v-1.2 1.2" transform="translate(-15.5 47.6)" fill="none"/></clipPath><clipPath id="ay"><path d="M40.2-46l-24.7-.4v-1.2h24.7v1.6" transform="translate(-15.5 47.6)" fill="none"/></clipPath><clipPath id="az"><path transform="translate(-.5)" fill="none" d="M0 0h27v2H0z"/></clipPath><clipPath id="aA"><path d="M15-45.6h25.9V-48H15z" transform="translate(-15 48)" fill="none"/></clipPath><clipPath id="aC"><path d="M7.5-46.4v-2 2" transform="translate(-7.4 48.4)" fill="none"/></clipPath><clipPath id="aD"><path d="M66.6-45.3h-1l-.1-2.2H41.4v1.7h-1v-1.7H15.5l.1 1.3h-1l-.2-2.2h59.3v1h-7.3l.1 2" transform="translate(-14.5 48.4)" fill="none"/></clipPath><clipPath id="aE"><path d="M69.7-129.5H4.2l.6-.6 1.6 38 3 76c.4 12.7 1 25.4 1 38C9.1 9.4 8.8-3.2 8.2-16L5.1-92l-1.5-38.6h66v1.2" transform="translate(-3.6 130.7)" fill="none"/></clipPath><clipPath id="aF"><path d="M253-53.3zm-15.1 0zm-25.2 0zm-11.4 0zm61.3-1.2h-9.7l-2-29.3h12zm-23.8 0h-1l.2-6zm-22.2 0h-3.9l.2-12.8zm-5 0h-10.2l1.8-29.3h5l3.7 13zm25.2-1.2l-4.2-28.1h2l2.4 16.4zM263-85.2h-12l-.5-6.6-12 .5V-93l24.7-.8zm-28.5 0h-2l-1-5.9-18.2.7V-92l24.1-.8v1.6l-3.7.1zm-26.7 0h-4.4l.4-6.6 8.4-.3v1.8l-5.8.2z" transform="translate(-201.3 93.7)" fill="none"/></clipPath><clipPath id="aG"><path transform="translate(-.4 .2)" fill="none" d="M0 0h63v41H0z"/></clipPath><clipPath id="aH"><path d="M201-52.9h62.3V-94H201z" transform="translate(-201 94)" fill="none"/></clipPath><clipPath id="aK"><path d="M262.4-11.9h-24.7v-4.7l.7 4.7H251l-1.2-23h13l-.3 23m-25.8 0h-24l.2-18.6 6 18.6h17.8m-25.1 0h-12.7l1.4-23h11.2l.4 1.3-.3 21.7m25.1-1.3l-3.4-21.7h1.9l1.7 11.7-.1 10m26-23h-13l-.4-7.5h-11.2V-45l24.7-.4-.1 9.3m-27.8 0h-2l-1.1-7.5H213v-1l24-.4v1.4h-3.2l1 7.5m-23.9 0h-10.7l.6-8.3 11.1-.2v1h-3.4l2.4 7.5" transform="translate(-198.8 45.5)" fill="none"/></clipPath><clipPath id="aL"><path transform="translate(-.3 -.4)" fill="none" d="M0 0h67v35H0z"/></clipPath><clipPath id="aM"><path d="M198-10.7h65.8V-46H198z" transform="translate(-198 46)" fill="none"/></clipPath><clipPath id="aP"><path d="M247.4-59h-14v-.3h14v.4" transform="translate(-233.4 59.3)" fill="none"/></clipPath><clipPath id="aQ"><path transform="translate(-.2)" fill="none" d="M0 0h16v2H0z"/></clipPath><clipPath id="aR"><path d="M233-57.6h15.3V-60H233z" transform="translate(-233 60)" fill="none"/></clipPath><clipPath id="aT"><path d="M232.5-60.9l.3-23.3-.3 23.3m.3-24.6v-6.2 6.2" transform="translate(-232.5 91.7)" fill="none"/></clipPath><clipPath id="aU"><path transform="translate(.4 -.1)" fill="none" d="M0 0h1v32H0z"/></clipPath><clipPath id="aV"><path d="M232-60.3h1.2V-92H232z" transform="translate(-232 92)" fill="none"/></clipPath><clipPath id="aZ"/><clipPath id="ba"><path d="M-35 239.3H965V-475H-35z" transform="translate(35 475)" fill="none"/></clipPath><clipPath id="bb"><rect width="2" transform="translate(.4 .1)" fill="none"/></clipPath><clipPath id="bc"/><clipPath id="bd"><path d="M231-58.6h1.4V-60H231z" transform="translate(-231 60)" fill="none"/></clipPath><clipPath id="bf"><path d="M235-59h-20.3l-.1-.3h20.3v.4" transform="translate(-214.6 59.3)" fill="none"/></clipPath><clipPath id="bg"><path fill="none" d="M0 0h21v2H0z"/></clipPath><clipPath id="bh"><path d="M214-57.6h21.2V-60H214z" transform="translate(-214 60)" fill="none"/></clipPath><clipPath id="bj"><path d="M210.3-72.3l.2-13-.2 13" transform="translate(-210.3 85.3)" fill="none"/></clipPath><clipPath id="bk"><path transform="translate(.1 .3)" fill="none" d="M0 0h1v14H0z"/></clipPath><clipPath id="bl"><path d="M210-71.9h1.2V-86H210z" transform="translate(-210 86)" fill="none"/></clipPath><clipPath id="bn"><path fill="none" d="M0 0h32.9v40H0z"/></clipPath><clipPath id="bp"><path d="M232-16.8l.3-18.3-.2 18.3m-1-6.7l.1-11.6-.1 11.6m1.2-13l.1-7.4v7.4" transform="translate(-231 44)" fill="none"/></clipPath><clipPath id="bq"><path fill="none" d="M0 0h3v27H0z"/></clipPath><clipPath id="br"><path d="M231-15.8h2.4V-44H231z" transform="translate(-231 44)" fill="none"/></clipPath><clipPath id="bu"><path fill="none" d="M0 0h18.8v34.1H0z"/></clipPath><clipPath id="bw"><path d="M234.5-12.2v-1.2 1.2M231-36.5h-20.1v-7.4 7.4h20" transform="translate(-210.8 44)" fill="none"/></clipPath><clipPath id="bx"><path transform="translate(.1)" fill="none" d="M0 0h23v32H0z"/></clipPath><clipPath id="by"><path d="M210-11h24.7v-33H210z" transform="translate(-210 44)" fill="none"/></clipPath><clipPath id="bA"><path fill="none" d="M0 0h30.6v34.1H0z"/></clipPath><clipPath id="bC"><path d="M301.4-130.2l-1.6 38.6h-35.7l.4-38.6h36.9" transform="translate(-264.1 130.2)" fill="none"/></clipPath><clipPath id="bD"><path d="M299.9-97.3L298-52.6h-34.4l.5-44.7h35.7" transform="translate(-263.7 97.3)" fill="none"/></clipPath><clipPath id="bE"><path d="M298-59.3l-.4 12.8h-34l.1-12.8h34.4" transform="translate(-263.6 59.3)" fill="none"/></clipPath><clipPath id="bF"><path d="M297.6-48.4l-1.5 38.3h-32.8l.4-38.3h34" transform="translate(-263.3 48.4)" fill="none"/></clipPath><clipPath id="bG"><path d="M296.1-15.9l-.7 17.7H263l.2-17.7h32.8" transform="translate(-263.1 15.9)" fill="none"/></clipPath><clipPath id="bH"><path d="M279-130.2l-.4 38.6h-96.9v-38.6H279" transform="translate(-181.7 130.2)" fill="none"/></clipPath><clipPath id="bI"><path d="M208.9-113.2l.8-4.6-11.4.7 1 5.9h5l.6 4.2h9.3l1.3-6.5-6.6.3" transform="translate(-198.3 117.7)" fill="none"/></clipPath><clipPath id="bJ"><path d="M254.4-48.4l-.5 38.3h-1l.3-24.2v-1.4l.1-12.7h1.1" transform="translate(-252.9 48.4)" fill="none"/></clipPath><clipPath id="bK"><path d="M233.6-158.6v33.4h-48v65h-25.1l-1.2-98.4h74.3" transform="translate(-159.3 158.6)" fill="none"/></clipPath><clipPath id="bL"><path d="M185.5 12.2h-24.2l-1-83.3V-75h25.2z" transform="translate(-160.3 75)" fill="none"/></clipPath><clipPath id="bM"><path d="M172-73.1v-47.5H65.2L68.6-73H172m-108.4-.7l-5.8-84.8H177l1.2 98.4H64.6l-.8-12.2-.1-1.4" transform="translate(-57.9 158.6)" fill="none"/></clipPath><clipPath id="bN"><path d="M152.1-58.9v51.7h-29.5v-25.9h1.4l.2 21h1.3l-.3-21h2.9l.4 14.4 20.3-3.7 1-36.5h2.3" transform="translate(-122.6 58.9)" fill="none"/></clipPath><clipPath id="bO"><path d="M152.1-61.4v3h-24.7l.7 25.7h-5.5v-28.7h29.5" transform="translate(-122.6 61.4)" fill="none"/></clipPath><clipPath id="bP"><path d="M157.4-63.4v2.3H95.2l2.3 54.6H96l-3.6-56.9h65" transform="translate(-92.5 63.4)" fill="none"/></clipPath><clipPath id="bQ"><path d="M159.2-71.7v9.8h-65L97.8-5H84.2l-1.6-66.7h76.6" transform="translate(-82.6 71.7)" fill="none"/></clipPath><clipPath id="bR"><path d="M125-37l.3 21H124l-.2-21h1.2" transform="translate(-123.8 37)" fill="none"/></clipPath><clipPath id="bS"><path d="M123-32.6v25.8h-1.5l-1.1-54.6h2.6v28.8" transform="translate(-120.4 61.4)" fill="none"/></clipPath><clipPath id="bT"><path d="M120.7-18.3v-40.1H98.2l2.1 36.4 20.4 3.7m3.9 6.6l-.5-21H123l.4 21h1.3m.3-49.7l1 54.6H97.2l-2.3-54.6h30.1" transform="translate(-94.8 61.4)" fill="none"/></clipPath><clipPath id="bU"><path d="M120-37l.4 21H119l-.4-21h1.2" transform="translate(-118.7 37)" fill="none"/></clipPath><clipPath id="bV"><path d="M127.7-19.8l-.9-32.6 22 1.3-.8 27.5-7.7 1.5 2.6-28.3-10.6-.8v30.5l4-.7-8.6 1.6" transform="translate(-126.8 52.4)" fill="none"/></clipPath><clipPath id="bW"><path transform="translate(-.3 -.2)" fill="none" d="M0 0h24v34H0z"/></clipPath><clipPath id="bX"><path d="M126-19h23.5v-34H126z" transform="translate(-126 53)" fill="none"/></clipPath><clipPath id="ca"><path d="M119.5-19.6l-2.6-32.7-10.6-.8 4.6 32-9.2-1.7 1-31 16.8 1v33.2" transform="translate(-101.7 53.9)" fill="none"/></clipPath><clipPath id="cb"><path transform="translate(.5 .4)" fill="none" d="M0 0h18v35H0z"/></clipPath><clipPath id="cc"><path d="M101-18.7h18.8V-54H101z" transform="translate(-101 54)" fill="none"/></clipPath><clipPath id="cf"><path d="M168.9-81h-30.6l.3-32 30.3-.2v32.3m-32 0H120l-1.4-32h18l.2 32m-31.3 0h-1.8l-4.3-31.9h2.1l4 31.9m-22.8 0H68.9l-2.3-31.7H74l8.7 31.7m86-34.1h-30.2v-9.7H169v9.7m-32.3 0h-18l-.4-9.7h-18l1.2 9.7h-2.2l-1.3-9.7h38.6l.1 9.7m-63.2 0h-7l-.7-9.7h5l2.7 9.7" transform="translate(-65.7 124.7)" fill="none"/></clipPath><clipPath id="cg"><path transform="translate(.3 -.4)" fill="none" d="M0 0h104v45H0z"/></clipPath><clipPath id="ch"><path d="M65-80.3h104.6V-125H65z" transform="translate(-65 125)" fill="none"/></clipPath><clipPath id="ck"><path d="M83.6-71.7L85.3-5h-4.9l-4-66.7h7.2" transform="translate(-76.5 71.7)" fill="none"/></clipPath><clipPath id="cl"><path d="M96.3-114.2l-.3-2.3h17.3l.1 2.2h-17" transform="translate(-96 116.5)" fill="none"/></clipPath><clipPath id="cm"><path transform="translate(.2 .5)" fill="none" d="M0 0h17v3H0z"/></clipPath><clipPath id="cn"><path d="M96-113.5h17.6v-3.5H96z" transform="translate(-96 117)" fill="none"/></clipPath><clipPath id="cq"><path fill="none" d="M0 0h22.3v47H0z"/></clipPath><clipPath id="cs"><path d="M102.6-81H96l-1.6-31.7-21.5.1-.6-2.4h22l-.5-9.7H96l.3 9.7H98l.3 2.2h-1.9l1 31.9h5.2" transform="translate(-72.3 124.7)" fill="none"/></clipPath><clipPath id="ct"><path transform="translate(0 -.4)" fill="none" d="M0 0h32v45H0z"/></clipPath><clipPath id="cu"><path d="M72-80.3h31.7V-125H72z" transform="translate(-72 125)" fill="none"/></clipPath><clipPath id="cw"><path fill="none" d="M0 0h35.3v47H0z"/></clipPath><clipPath id="cy"><path d="M169.2-114.8h-30.3v-9.6h30.3zm0 34.1h-30.6l.3-32 30.3-.2zm-70.3 0l-1-31.8 39-.2.3 32zm-29.7 0l-2.3-31.6 29-.2 1.6 31.8zM66-124.4h29.3l.5 9.6H66.7zm70.8 0l.1 9.6H97.8l-.3-9.6zM64-126.2l3.5 47.4H171v-47.4z" transform="translate(-64 126.2)" fill="none"/></clipPath><clipPath id="cz"><path d="M148-49.8l-2.4-.1.2-9h2.3v9.1" transform="translate(-145.6 58.9)" fill="none"/></clipPath><clipPath id="cA"><path d="M127.6-50.8l-5-.3v-10.3h29.5v3h-24.7l.2 7.6" transform="translate(-122.6 61.4)" fill="none"/></clipPath><clipPath id="cB"><path d="M97.5-6.5H96l-3.6-56.9h65v2.3H95.1l2.3 54.6" transform="translate(-92.5 63.4)" fill="none"/></clipPath><clipPath id="cC"><path d="M97.8-5H84.2l-1.6-66.7h76.6v9.8h-65L97.8-5" transform="translate(-82.6 71.7)" fill="none"/></clipPath><clipPath id="cD"><path d="M123-51.1l-2.4-.2-.2-10.1h2.6v10.3" transform="translate(-120.4 61.4)" fill="none"/></clipPath><clipPath id="cE"><path d="M102.4-6.8h-5.3l-2.3-54.6h30.1l.2 10.1-4.4-.2v-7H98.2l2.1 36.5 2.6.5-.5 14.7" transform="translate(-94.8 61.4)" fill="none"/></clipPath><clipPath id="cF"><path d="M148.9-50l-22-1.3-.2-7.6h22.5l-.3 9" transform="translate(-126.7 58.9)" fill="none"/></clipPath><clipPath id="cG"><path transform="translate(-.3)" fill="none" d="M0 0h24v10H0z"/></clipPath><clipPath id="cH"><path d="M126-49.6h23.5V-59H126z" transform="translate(-126 59)" fill="none"/></clipPath><clipPath id="cK"><path d="M102.4-22l-2.6-.4L97.7-59h22.5v7L103.4-53l-1 31" transform="translate(-97.7 58.9)" fill="none"/></clipPath><clipPath id="cL"><path transform="translate(.4)" fill="none" d="M0 0h23v39H0z"/></clipPath><clipPath id="cM"><path d="M97-21.4h23.5V-59H97z" transform="translate(-97 59)" fill="none"/></clipPath><clipPath id="cP"><path fill="none" d="M0 0h15.3v36.4H0z"/></clipPath><clipPath id="cR"><path d="M134.9-26l4-.7-4 .8" transform="translate(-134.9 26.7)" fill="none"/></clipPath><clipPath id="cS"><path transform="translate(-.2 -.5)" fill="none" d="M0 0h5v1H0z"/></clipPath><clipPath id="cT"><path d="M134-25.8h5.9V-27H134z" transform="translate(-134 27)" fill="none"/></clipPath><clipPath id="cW"><path fill="none" d="M0 0h12.9v32.9H0z"/></clipPath><clipPath id="cY"><path d="M238.8-35.7h-24v-11.5H239l-.2 11.5m-.3 24.3h-24l.2-23h24.1l-.3 23m-49.4 0l.3-23h24.3l-.3 23H189m24.7-35.8l-.1 11.5h-24.3l.2-11.5h24.2m51.4 0v-1.2h-76.7l-.5 38.3h77.2v-1.3h-25.6l.3-23h24.6v-1.3H240l.1-11.5h25.2" transform="translate(-188 48.4)" fill="none"/></clipPath><clipPath id="cZ"><path d="M240.1-53.9l.4-29.3h24.7l-.4 29.3H240m-25.1 0l.3-29.3h24.1l-.3 29.3H215m-25.3 0l.3-29.3h24.3l-.4 29.3h-24.2M214.4-96l-.1 11.5H190l.2-11.5h24.2m25.2 0l-.2 11.5h-24l.1-11.5h24m25.8 0l-.1 11.5h-24.7l.2-11.5h24.6m.5-1.2h-76.7l-.5 44.7h77.3l.5-44.7h-.5" transform="translate(-188.6 97.3)" fill="none"/></clipPath><clipPath id="da"><path d="M189.9-59.3" transform="translate(-189.9 59.3)" fill="none"/></clipPath><clipPath id="db"><path d="M204-46.5h-22.3v-12.8h23.1l-.8 12.8" transform="translate(-181.7 59.3)" fill="none"/></clipPath><clipPath id="dc"/><clipPath id="dd"><rect width="18" transform="translate(-.3 .1)" fill="none"/></clipPath><clipPath id="de"/><clipPath id="df"><path d="M189-58.6h18.6V-60H189z" transform="translate(-189 60)" fill="none"/></clipPath><clipPath id="di"><path d="M264.4-126v-4.2 4.2" transform="translate(-264.4 130.2)" fill="none"/></clipPath><clipPath id="dj"><path d="M207.5-91.6h-25.8v-38.6H279v4.2l-69.5 1.6-.5 9-7.8.5 1 5.8h5l.6 4.3h.5l-.8 13.2" transform="translate(-181.7 130.2)" fill="none"/></clipPath><clipPath id="dk"><path d="M205.4-107h-.5l-.6-4.3h-5l-1-5.9 7.8-.4-.7 10.6" transform="translate(-198.3 117.6)" fill="none"/></clipPath><clipPath id="dl"><path d="M200.5-13.5H189l.2-23H202l-1.4 23" transform="translate(-189 36.5)" fill="none"/></clipPath><clipPath id="dm"><path transform="translate(.4 -.3)" fill="none" d="M0 0h14v25H0z"/></clipPath><clipPath id="dn"><path d="M188-12.3h14.1V-37H188z" transform="translate(-188 37)" fill="none"/></clipPath><clipPath id="dq"><path d="M202-35.9h-12.8l.2-11.5h24.2v3l-11.2.2-.5 8.3m12.7-8.5v-3h24.2v2.7l-24.2.3" transform="translate(-189.2 47.4)" fill="none"/></clipPath><clipPath id="dr"><path transform="translate(-.4)" fill="none" d="M0 0h51v12H0z"/></clipPath><clipPath id="ds"><path d="M189-35h50.6v-13H189z" transform="translate(-189 48)" fill="none"/></clipPath><clipPath id="du"><path d="M232.2-44.8v-2.6 2.6" transform="translate(-232.2 47.4)" fill="none"/></clipPath><clipPath id="dv"><path d="M232.2-44.8v-2.6H257v2.3l-24.7.3" transform="translate(-232.2 47.4)" fill="none"/></clipPath><clipPath id="dw"><path transform="translate(.4)" fill="none" d="M0 0h26v3H0z"/></clipPath><clipPath id="dx"><path d="M232-44.5h25.9V-48H232z" transform="translate(-232 48)" fill="none"/></clipPath><clipPath id="dz"><path d="M263.6-45.1v-3.3 3.3" transform="translate(-263.6 48.4)" fill="none"/></clipPath><clipPath id="dA"><path d="M253.2-45v-2.2h.6v-1.2h.5v3.5h-1" transform="translate(-253.2 48.4)" fill="none"/></clipPath><clipPath id="dB"><path d="M189.5-56l.4-29.3-.4 29.3" transform="translate(-189.5 85.3)" fill="none"/></clipPath><clipPath id="dC"><path d="M203.5-56h-14l.4-29.3h15.4L203.5-56" transform="translate(-189.5 85.3)" fill="none"/></clipPath><clipPath id="dD"><path transform="translate(-.4 .3)" fill="none" d="M0 0h17v31H0z"/></clipPath><clipPath id="dE"><path d="M189-55.4h16.5V-86H189z" transform="translate(-189 86)" fill="none"/></clipPath><clipPath id="dG"><path d="M205.3-84.7h-15.5l.2-11.6h24.2v4.7l-8.5.2-.4 6.7m10-7v-4.6h24v3.8l-24 .8" transform="translate(-189.8 96.3)" fill="none"/></clipPath><clipPath id="dH"><path transform="translate(-.4 -.4)" fill="none" d="M0 0h51v13H0z"/></clipPath><clipPath id="dI"><path d="M189-84h50.6v-13H189z" transform="translate(-189 97)" fill="none"/></clipPath><clipPath id="dK"><path d="M232.8-92.5v-3.8 3.8" transform="translate(-232.8 96.3)" fill="none"/></clipPath><clipPath id="dL"><path d="M232.8-92.5v-3.8h24.8v3l-24.8.8" transform="translate(-232.8 96.3)" fill="none"/></clipPath><clipPath id="dM"><path transform="translate(.4 -.4)" fill="none" d="M0 0h26v4H0z"/></clipPath><clipPath id="dN"><path d="M232-92.3h25.9V-97H232z" transform="translate(-232 97)" fill="none"/></clipPath><clipPath id="dP"><path d="M200.6-10.1H188l.5-38.3h76.7v1.2H240v2.6h-1v-2.6h-24.1v3h-1.1v-3h-24.2l-.2 11.5h12.7v1.4h-12.7l-.3 23h11.5v1.2" transform="translate(-188 48.4)" fill="none"/></clipPath><clipPath id="dQ"><path d="M203.6-52.6h-15l.5-44.7h77.3v4.2h-1.1v-3h-24.6v3.8h-1.2V-96h-24v4.6h-1.1V-96h-24.2l-.2 11.5h15.5v1.4H190l-.3 29.3h14l-.1 1.3" transform="translate(-188.6 97.3)" fill="none"/></clipPath><clipPath id="dR"><path d="M251.6-158.5l-48.4.6H58l.6-.7L68-19.4 70.7 27l-3.8-46.4L57.3-159h145.9l48.4.6" transform="translate(-57.3 159.1)" fill="none"/></clipPath><clipPath id="dS"><path d="M177-152.6l-118.3-1.9-.3-3.5v-.1H177v5.5" transform="translate(-58.4 158.1)" fill="none"/></clipPath><clipPath id="dT"><path d="M58.4-158v-.2H177 58.4v.2" transform="translate(-58.4 158.2)" fill="none"/></clipPath><clipPath id="dU"><path d="M242.6-157.2H119.5l-.6-6.4h124.3l-.6 6.4" transform="translate(-118.9 163.6)" fill="none"/></clipPath><clipPath id="dV"><path d="M307-129h-64l-.7-6.3h65.3l-.6 6.4" transform="translate(-242.3 135.3)" fill="none"/></clipPath><clipPath id="dW"><path d="M80.1-76h9.3l1.2-6.5-11.4.6.9 6" transform="translate(-79.2 82.5)" fill="none"/></clipPath><clipPath id="dX"><path d="M142.4-82.3l-7.8.4 1 6h9.3l.5-2.7h6.9l1.2-6.5-11.4.6.3 2.2" transform="translate(-134.6 85.1)" fill="none"/></clipPath><clipPath id="dY"><path d="M76-135.3l.9-4.6-11.5.6 1 6h5l.7 4.2h9.3l1.2-6.5-6.6.3" transform="translate(-65.4 139.9)" fill="none"/></clipPath><clipPath id="dZ"><path d="M152.9-141.6l1.2-6.5-11.4.6.9 5.9h9.3" transform="translate(-142.7 148.1)" fill="none"/></clipPath><clipPath id="ea"><path d="M150.4-136.8l-11.5.6 1 6h9.3l1.2-6.6" transform="translate(-139 136.8)" fill="none"/></clipPath><clipPath id="eb"><path d="M13-115.1l-1.2-6.5 11.4.6-.9 5.9H13" transform="translate(-11.8 121.6)" fill="none"/></clipPath><clipPath id="ec"><path d="M26-108.8l11.5.6-1 5.9h-9.3l-1.2-6.5" transform="translate(-26 108.8)" fill="none"/></clipPath><clipPath id="ed"><path d="M97.9-127.5h9.3l1.2-6.5-11.4.6.9 5.9" transform="translate(-97 134)" fill="none"/></clipPath><clipPath id="ee"><path d="M260.2-113.7l1.2-6.5-11.4.6.9 5.9h9.3" transform="translate(-250 120.2)" fill="none"/></clipPath><clipPath id="ef"><path d="M257.7-108.9l-11.5.6 1 5.9h9.3l1.2-6.5" transform="translate(-246.2 108.9)" fill="none"/></clipPath><clipPath id="eg"><path d="M224-105.2h9.3l1.2-6.5-11.4.7.9 5.8" transform="translate(-223 111.7)" fill="none"/></clipPath><clipPath id="eh"><path d="M249.3-48.8h9.3l1.2-6.5-11.4.6 1 6" transform="translate(-248.4 55.3)" fill="none"/></clipPath><clipPath id="ei"><path d="M119.8-141.9l1.2-6.5-8.6.5.9-4.5-11.5.6 1 5.9h7l.7 4h9.3" transform="translate(-101.8 152.4)" fill="none"/></clipPath><clipPath id="ej"><path d="M44.4-109.4h9.3l1.2-6.5-11.5.6 1 5.9" transform="translate(-43.4 116)" fill="none"/></clipPath><clipPath id="ek"><path d="M51-122.5l-11.4.6 1 5.9h9.2l1.3-6.5" transform="translate(-39.6 122.5)" fill="none"/></clipPath><clipPath id="el"><path d="M153-12v.7H78.5l-.1-1.6 74.4.9" transform="translate(-78.5 13)" fill="none"/></clipPath><clipPath id="em"><path d="M150.6-15V1.7h-18.9V.9l-.2-3.9h4v-.6l-.2-3.3h4.2v-.6l-.2-3.4h4.3v-.8l-.2-3.3h7.2" transform="translate(-131.5 15)" fill="none"/></clipPath><clipPath id="en"><path d="M149.7-8.5v.6H73.1v-1.3l76.6.7" transform="translate(-73 9.2)" fill="none"/></clipPath><clipPath id="eo"><path d="M146.7-5.3v.7H68l-.1-1 78.8.3" transform="translate(-67.9 5.7)" fill="none"/></clipPath><clipPath id="ep"><path d="M286-52.2h-7.8l-.8-38.6h9.4l-.8 38.6" transform="translate(-277.4 90.8)" fill="none"/></clipPath><clipPath id="eq"><path d="M284.1-52.2h-7.5l-.7-38.6h9l-.8 38.6" transform="translate(-275.9 90.8)" fill="none"/></clipPath><clipPath id="er"><path d="M290.5-57.6h-3.4l.5-10.6h3.5l-.6 10.6zm-16-10.6h3.6l.5 10.6h-3.4l-.6-10.6zm8 10.6h-3.3l-.3-10.6h3.5l.2 10.6zm.8-10.6h3.5l-.3 10.6h-3.4l.2-10.6zm10 0l.1-1h-21.2l.1 1h1.4l1 10.6h-1.5l.2 2.5h18.8l.2-2.5h-1.3l1-10.6z" transform="translate(-272.2 69.2)" fill="none"/></clipPath><clipPath id="es"><path d="M286-9.5h-7.8l-.8-34.2h9.4L286-9.5" transform="translate(-277.4 43.7)" fill="none"/></clipPath><clipPath id="et"><path d="M284.1-9.5h-7.5l-.7-34.2h9L284-9.5" transform="translate(-275.9 43.7)" fill="none"/></clipPath><clipPath id="eu"><path d="M290.5-14.2h-3.4l.5-10.7h3.5l-.6 10.7zm-16-10.7h3.6l.5 10.7h-3.4l-.6-10.7zm8 10.7h-3.3l-.3-10.7h3.5l.2 10.7zm.8-10.7h3.5l-.3 10.7h-3.4l.2-10.7zm10 0l.1-.9h-21.2l.1 1h1.4l1 10.6h-1.5l.2 2.5h18.8l.2-2.5h-1.3l1-10.7z" transform="translate(-272.2 25.8)" fill="none"/></clipPath><clipPath id="ev"><path d="M276.4-15.7l.9-6h6l-.9 6zm3-21.3l1-6h6.2l-1 6zm5 8.2l-.9 6h-6l.8-6zm-6-1l.9-6.1h6.2l-.9 6zm9.3-20.3l-1 6h-6.2l.8-6zm1.1-7.1l-1 6h-6.3l.9-6h-.8l-7 50h.6l1-7.5h6L281.2-7h.5l8-50.1z" transform="translate(-274.7 57.2)" fill="none"/></clipPath><clipPath id="j"><path d="M0 0h500v500H0z"/></clipPath><linearGradient id="k" x1=".5" y1=".9" x2=".5" y2=".1" gradientUnits="objectBoundingBox"><stop offset="0" stop-color="#386aa9"/><stop offset="1" stop-color="#5f4aa8"/></linearGradient><linearGradient id="l" y1=".5" x2="1" y2=".5" gradientUnits="objectBoundingBox"><stop offset="0" stop-color="#a198ff"/><stop offset="1" stop-color="#e6cdeb"/></linearGradient><linearGradient id="m" x1=".6" y1=".1" x2=".4" y2="1.1" gradientUnits="objectBoundingBox"><stop offset="0" stop-color="#fff8f7"/><stop offset="1" stop-color="#ffc1d2"/><stop offset="1" stop-color="#386aa9"/></linearGradient><linearGradient id="n" x1=".5" y1=".2" x2=".4" y2="1.4" gradientUnits="objectBoundingBox"><stop offset="0" stop-color="#edb9e7"/><stop offset="1" stop-color="#c9b8f2"/></linearGradient><linearGradient id="b" x1=".5" y1=".2" x2=".4" y2=".9" gradientUnits="objectBoundingBox"><stop offset="0" stop-color="#fff8f7"/><stop offset="1" stop-color="#d7b8ff"/></linearGradient><linearGradient id="o" x1=".6" y1="-.1" x2=".5" y2="1.4" gradientUnits="objectBoundingBox"><stop offset="0" stop-color="#fbe4e2"/><stop offset="1" stop-color="#eeb4c4"/></linearGradient><linearGradient id="a" x1=".6" y1="-.2" x2=".4" y2="1.3" gradientUnits="objectBoundingBox"><stop offset="0" stop-color="#fff8f7"/><stop offset="1" stop-color="#ffc1d2"/></linearGradient><linearGradient id="p" x1=".6" y1="-.1" x2=".4" y2="1.2" xlink:href="#a"/><linearGradient id="q" x1="0" y1=".5" x2="1" y2=".5" xlink:href="#b"/><linearGradient id="c" x1="0" y1=".7" x2="0" y2="7" gradientUnits="objectBoundingBox"><stop offset="0"/><stop offset="0" stop-color="#42f1d7"/><stop offset=".1" stop-color="#55f1d4"/><stop offset=".2" stop-color="#68f2d2"/><stop offset=".3" stop-color="#7bf2cf"/><stop offset=".4" stop-color="#8ef2cd"/><stop offset=".5" stop-color="#a1f3ca"/><stop offset=".6" stop-color="#b3f3c7"/><stop offset=".7" stop-color="#c6f3c5"/><stop offset=".8" stop-color="#d9f3c2"/><stop offset=".9" stop-color="#ecf4c0"/><stop offset="1" stop-color="#fff4bd"/><stop offset="1"/></linearGradient><linearGradient id="d" x1=".1" y1=".9" x2=".1" y2=".7" gradientUnits="objectBoundingBox"><stop offset="0" stop-color="#42f1d7"/><stop offset=".1" stop-color="#55f1d4"/><stop offset=".2" stop-color="#68f2d2"/><stop offset=".3" stop-color="#7bf2cf"/><stop offset=".4" stop-color="#8ef2cd"/><stop offset=".5" stop-color="#a1f3ca"/><stop offset=".6" stop-color="#b3f3c7"/><stop offset=".7" stop-color="#c6f3c5"/><stop offset=".8" stop-color="#d9f3c2"/><stop offset=".9" stop-color="#ecf4c0"/><stop offset="1" stop-color="#fff4bd"/></linearGradient><linearGradient id="D" x1="0" y1=".4" x2="0" y2="6.7" xlink:href="#c"/><linearGradient id="E" x1=".1" y1=".6" x2=".1" y2=".4" xlink:href="#d"/><linearGradient id="e" x1=".2" y1=".4" x2=".2" y2="6.7" gradientUnits="objectBoundingBox"><stop offset="0"/><stop offset="0" stop-color="#fff"/><stop offset=".1" stop-color="#fff"/><stop offset=".2" stop-color="#fff"/><stop offset=".3" stop-color="#fff"/><stop offset=".4" stop-color="#fff"/><stop offset=".5" stop-color="#fff"/><stop offset=".6" stop-color="#fff"/><stop offset=".7" stop-color="#fff"/><stop offset=".8" stop-color="#fff"/><stop offset=".9" stop-color="#fff"/><stop offset="1" stop-color="#fff"/><stop offset="1"/></linearGradient><linearGradient id="f" x1=".1" y1=".4" x2=".1" y2=".7" gradientUnits="objectBoundingBox"><stop offset="0" stop-color="#fff"/><stop offset=".1" stop-color="#fff"/><stop offset=".2" stop-color="#fff"/><stop offset=".3" stop-color="#fff"/><stop offset=".4" stop-color="#fff"/><stop offset=".5" stop-color="#fff"/><stop offset=".6" stop-color="#fff"/><stop offset=".7" stop-color="#fff"/><stop offset=".8" stop-color="#fff"/><stop offset=".9" stop-color="#fff"/><stop offset="1" stop-color="#fff"/></linearGradient><linearGradient id="N" x1=".1" y1=".5" x2=".1" y2="6.7" xlink:href="#e"/><linearGradient id="V" x1=".1" y1=".7" x2=".1" y2="7" xlink:href="#e"/><linearGradient id="W" x1=".1" y1=".7" x2=".1" y2=".9" xlink:href="#f"/><linearGradient id="g" x1=".2" y1=".4" x2=".2" y2="6.7" gradientUnits="objectBoundingBox"><stop offset="0"/><stop offset="0" stop-color="#348a82"/><stop offset=".1" stop-color="#438a80"/><stop offset=".2" stop-color="#518a7f"/><stop offset=".3" stop-color="#608a7d"/><stop offset=".4" stop-color="#6f8a7c"/><stop offset=".5" stop-color="#7e8b7a"/><stop offset=".6" stop-color="#8c8b79"/><stop offset=".7" stop-color="#9b8b77"/><stop offset=".8" stop-color="#aa8b76"/><stop offset=".9" stop-color="#b88b74"/><stop offset="1" stop-color="#c78b73"/><stop offset="1"/></linearGradient><linearGradient id="h" x1=".1" y1=".6" x2=".1" y2=".4" gradientUnits="objectBoundingBox"><stop offset="0" stop-color="#348a82"/><stop offset=".1" stop-color="#438a80"/><stop offset=".2" stop-color="#518a7f"/><stop offset=".3" stop-color="#608a7d"/><stop offset=".4" stop-color="#6f8a7c"/><stop offset=".5" stop-color="#7e8b7a"/><stop offset=".6" stop-color="#8c8b79"/><stop offset=".7" stop-color="#9b8b77"/><stop offset=".8" stop-color="#aa8b76"/><stop offset=".9" stop-color="#b88b74"/><stop offset="1" stop-color="#c78b73"/></linearGradient><linearGradient id="ak" x1="0" y1=".4" x2="0" y2="6.7" xlink:href="#g"/><linearGradient id="aq" x1=".2" y1=".7" x2=".2" y2="7" xlink:href="#g"/><linearGradient id="ar" x1=".1" y1=".9" x2=".1" y2=".7" xlink:href="#h"/><linearGradient id="aw" x1=".1" y1=".7" x2=".1" y2="7" xlink:href="#g"/><linearGradient id="aB" x1="0" y1=".7" x2="0" y2="7" xlink:href="#g"/><linearGradient id="aI" x1=".7" y1=".4" x2=".7" y2="6.7" xlink:href="#c"/><linearGradient id="aJ" x1=".7" y1=".6" x2=".7" y2=".4" xlink:href="#d"/><linearGradient id="aN" x1=".7" y1=".7" x2=".7" y2="7" xlink:href="#c"/><linearGradient id="aO" x1=".7" y1=".9" x2=".7" y2=".7" xlink:href="#d"/><linearGradient id="i" x1=".8" y1=".6" x2=".8" y2="6.9" gradientUnits="objectBoundingBox"><stop offset="0"/><stop offset="0" stop-color="#ffffbc"/><stop offset=".1" stop-color="#fef3af"/><stop offset=".2" stop-color="#fde8a1"/><stop offset=".3" stop-color="#fcdc94"/><stop offset=".4" stop-color="#fbd186"/><stop offset=".5" stop-color="#fac679"/><stop offset=".6" stop-color="#f9ba6c"/><stop offset=".7" stop-color="#f8ae5e"/><stop offset=".8" stop-color="#f7a351"/><stop offset=".9" stop-color="#f69743"/><stop offset="1" stop-color="#f58c36"/><stop offset="1"/></linearGradient><linearGradient id="aS" x1=".7" y1=".4" x2=".8" y2=".7" gradientUnits="objectBoundingBox"><stop offset="0" stop-color="#ffffbc"/><stop offset=".1" stop-color="#fef3af"/><stop offset=".2" stop-color="#fde8a1"/><stop offset=".3" stop-color="#fcdc94"/><stop offset=".4" stop-color="#fbd186"/><stop offset=".5" stop-color="#fac679"/><stop offset=".6" stop-color="#f9ba6c"/><stop offset=".7" stop-color="#f8ae5e"/><stop offset=".8" stop-color="#f7a351"/><stop offset=".9" stop-color="#f69743"/><stop offset="1" stop-color="#f58c36"/></linearGradient><linearGradient id="aW" x1=".8" y1=".4" x2=".8" y2="6.7" xlink:href="#e"/><linearGradient id="aX" x1=".7" y1=".4" x2=".8" y2=".7" xlink:href="#f"/><linearGradient id="be" x1=".8" y1=".6" x2=".8" y2="6.9" xlink:href="#e"/><linearGradient id="bi" x1=".7" y1=".6" x2=".7" y2="6.9" xlink:href="#i"/><linearGradient id="bm" x1=".7" y1=".5" x2=".7" y2="6.7" xlink:href="#e"/><linearGradient id="bs" x1=".8" y1=".7" x2=".8" y2="7" xlink:href="#e"/><linearGradient id="bt" x1=".7" y1=".7" x2=".8" y2=".9" xlink:href="#f"/><linearGradient id="bz" x1=".7" y1=".7" x2=".7" y2="7" xlink:href="#e"/><linearGradient id="bY" x1=".4" y1=".7" x2=".4" y2="6.9" xlink:href="#c"/><linearGradient id="bZ" x1=".5" y1=".9" x2=".5" y2=".6" xlink:href="#d"/><linearGradient id="cd" x1=".3" y1=".7" x2=".3" y2="6.9" xlink:href="#c"/><linearGradient id="ce" x1=".4" y1=".9" x2=".4" y2=".6" xlink:href="#d"/><linearGradient id="ci" x1=".2" y1=".2" x2=".2" y2="6.5" xlink:href="#c"/><linearGradient id="cj" x1=".4" y1=".5" x2=".4" y2=".2" xlink:href="#d"/><linearGradient id="co" x1=".3" y1=".3" x2=".3" y2="6.5" xlink:href="#e"/><linearGradient id="cp" x1=".3" y1=".2" x2=".3" y2=".5" xlink:href="#f"/><linearGradient id="cv" x1=".2" y1=".2" x2=".2" y2="6.5" xlink:href="#e"/><linearGradient id="cI" x1=".4" y1=".6" x2=".4" y2="6.9" xlink:href="#g"/><linearGradient id="cJ" x1=".5" y1=".9" x2=".5" y2=".6" xlink:href="#h"/><linearGradient id="cN" x1=".3" y1=".6" x2=".3" y2="6.9" xlink:href="#g"/><linearGradient id="cO" x1=".4" y1=".9" x2=".4" y2=".6" xlink:href="#h"/><linearGradient id="cU" x1=".4" y1=".8" x2=".4" y2="7.1" gradientUnits="objectBoundingBox"><stop offset="0"/><stop offset="0" stop-color="#ffffbf"/><stop offset=".1" stop-color="#f8f9b2"/><stop offset=".2" stop-color="#f1f4a5"/><stop offset=".3" stop-color="#ebee99"/><stop offset=".4" stop-color="#e4e88c"/><stop offset=".5" stop-color="#dde37f"/><stop offset=".6" stop-color="#d6dd72"/><stop offset=".7" stop-color="#cfd765"/><stop offset=".8" stop-color="#c9d159"/><stop offset=".9" stop-color="#c2cc4c"/><stop offset="1" stop-color="#bbc63f"/><stop offset="1"/></linearGradient><linearGradient id="cV" x1=".5" y1=".7" x2=".4" y2=".8" gradientUnits="objectBoundingBox"><stop offset="0" stop-color="#ffffbf"/><stop offset=".1" stop-color="#f8f9b2"/><stop offset=".2" stop-color="#f1f4a5"/><stop offset=".3" stop-color="#ebee99"/><stop offset=".4" stop-color="#e4e88c"/><stop offset=".5" stop-color="#dde37f"/><stop offset=".6" stop-color="#d6dd72"/><stop offset=".7" stop-color="#cfd765"/><stop offset=".8" stop-color="#c9d159"/><stop offset=".9" stop-color="#c2cc4c"/><stop offset="1" stop-color="#bbc63f"/></linearGradient><linearGradient id="dg" x1=".6" y1=".6" x2=".6" y2="6.9" xlink:href="#g"/><linearGradient id="dh" x1=".7" y1=".6" x2=".7" y2=".4" xlink:href="#h"/><linearGradient id="do" x1=".6" y1=".8" x2=".6" y2="7" xlink:href="#g"/><linearGradient id="dp" x1=".7" y1=".9" x2=".7" y2=".7" xlink:href="#h"/><linearGradient id="dt" x1=".6" y1=".7" x2=".6" y2="7" xlink:href="#g"/><linearGradient id="dy" x1=".8" y1=".7" x2=".8" y2="7" xlink:href="#g"/><linearGradient id="dF" x1=".6" y1=".5" x2=".6" y2="6.7" xlink:href="#g"/><linearGradient id="dJ" x1=".6" y1=".4" x2=".6" y2="6.7" xlink:href="#g"/><linearGradient id="dO" x1=".8" y1=".4" x2=".8" y2="6.7" xlink:href="#g"/><filter id="ew" x="214" y="255" width="113" height="17" filterUnits="userSpaceOnUse"><feOffset dx="1" dy="1"/><feGaussianBlur result="qu"/><feFlood flood-color="#93314e"/><feComposite operator="in" in2="qu"/><feComposite in="SourceGraphic"/></filter></defs><g clip-path="url(#j)"><path fill="#fff" d="M0 0h500v500H0z"/><path fill="url(#k)" d="M0 0h500v500H0z"/><path d="M0 65.6l500 48.7V133L0 170z" transform="translate(0 -40.9)" opacity=".1" fill="url(#l)"/><path d="M500 274.7v146.8H203.8L0 328.9z" transform="translate(0 78.9)" opacity=".1" fill="url(#l)"/><path d="M241 151.7s25-34.4 70.8-34.3c107 .2 120 135.5 120 135.5s-1.8 3 14.6 18.5c12 11.4 14.2 3.6 14.2 3.6s31.1-5.6 40 3.1 2 16.6 2 16.6l214.6 93.7L241 387z" transform="rotate(-7 578 2674.5)" opacity=".1" fill="url(#m)"/><path d="M738.7 339.3v24.2H241V217.2l51.5-31.1 302 128.6z" transform="translate(-241 136.4)" fill="url(#n)"/><path d="M269.8 186L402 285.5l-40.5-8.8 93.7 69 51.3-58.6z" transform="translate(-217.4 136.4)" opacity=".8" fill="url(#b)"/><path d="M695.7 314v61.5H296.6l1.3-.7c49.7-26.9 237.8-129.5 290.1-158l1.4-.9 2.6-1.4 9.6-5.2z" transform="translate(-195.7 124.5)" fill="url(#o)"/><path d="M485 380.7l53.4-25s-49.6 55-80.3 91.6H297l-.8.5L663 221.4l4.3-2.6 3.2-2 12.1-7.5z" transform="translate(-289.4 52.4)" fill="url(#a)"/><path d="M412 326l43.2-51.3 35.5-19 13-28.4-115.4 99z" transform="translate(-121.3 173.8)" fill="url(#p)"/><g fill="#386aa9"><path d="M0 500h100l97.3.2L0 464.5z"/><path d="M0 421.3l11.1 27.9h-3L20 475.5H0z"/><path d="M28.6 437.3l7.2 20.8-2.6.5 8.4 33.4-35.3-7L19 463.2l-2-1.3zM57.8 447.8l5.6 16-2 .3 6.5 25.9-27.3-5.5 9.9-16.7-1.5-1z"/><path d="M42.8 457.3l4.8 13.9-1.7.2 5.6 22.4L28 489l8.5-14.5-1.3-1zM83.7 465.4l3.7 10.7-1.4.2 4.4 17.2-18.2-3.6 6.6-11.2-1-.7z"/><path d="M90.7 471l1.7 5-.6.2 2 8-8.5-1.6 3-5.3-.4-.3zM123.4 480.7l1.8 5-.7.2 2 8.1-8.5-1.7 3.1-5.3-.5-.3z"/><path d="M97 472.8l1.7 5-.7.2 2 8.1-8.5-1.7 3.1-5.3-.5-.3zM119.1 477.6l1.8 5.1-.7.1 2 8.1-8.5-1.7 3.1-5.3-.5-.3z"/><path d="M103.5 472.5l3.5 10.4-1.3.2 4.3 16.7-17.7-3.5 6.4-10.9-1-.7z"/><path d="M112.8 471.4l2.9 8.3-1 .2 3.3 13.4-14.1-2.9 5-8.6-.7-.6zM71 454.7l4.7 13.8-1.7.3 5.6 22.3-23.5-4.7 8.5-14.5-1.3-.9z"/></g><g fill="#386aa9"><path d="M500 500H352.9L500 473.5z"/><path d="M500 441.5l-8.3 20.7h2.3l-8.8 19.6H500z"/><path d="M478.7 453.4l-5.3 15.5 2 .3-6.4 25 26.3-5.3-9.5-16.2 1.5-1zM457 461.2l-4.1 12 1.5.2-4.9 19.2 20.3-4-7.3-12.5 1-.8z"/><path d="M468.1 468.3l-3.5 10.3 1.3.2-4.2 16.6 17.5-3.5-6.3-10.8 1-.6zM437.7 474.3l-2.7 8 1 .1-3.2 12.8 13.5-2.7-5-8.3.8-.5z"/><path d="M432.5 478.5l-1.3 3.7.5.1-1.5 6 6.4-1.2-2.4-4 .4-.2zM408.2 485.7l-1.3 3.8h.5l-1.6 6.1 6.4-1.3-2.3-3.9.4-.2z"/><path d="M427.9 479.8l-1.3 3.8h.5l-1.6 6.1 6.4-1.3-2.3-3.9.4-.2zM411.4 483.4l-1.3 3.8h.4l-1.5 6.1 6.4-1.3-2.3-3.9.4-.2z"/><path d="M423 479.6l-2.6 7.7 1 .1-3.2 12.5 13.1-2.6-4.7-8.1.7-.5z"/><path d="M416 478.8l-2 6.2h.7l-2.5 10 10.5-2-3.8-6.5.6-.4zM447.2 466.3l-3.5 10.3 1.2.2-4.1 16.6 17.5-3.4-6.4-10.8 1-.7z"/></g><path d="M290.8 220.1c.6-.5 68.2 53.2 68.2 53.2l-54-27.7z" transform="translate(-200.4 165.6)" opacity=".3" fill="url(#q)"/><path d="M326.8 488.4L347 455l-43.8 44.9z" fill="#fecfdc"/><g><path d="M211.3 283.4v-20l67.8-19.2 7.8-4 115-2.6-45.2 59.3 127.3-24-7 154.7-325-.4-6.5-150.5z" fill="#fff"/><g transform="translate(149.4 359.5)" clip-path="url(#r)"><g transform="translate(-49.4 -488.7)" clip-path="url(#s)"><path d="M43.5 482.8h80.4v24.5H43.5z" fill="#f58b36"/></g></g><g transform="translate(189 359.5)" clip-path="url(#t)"><g transform="translate(-88.9 -488.7)" clip-path="url(#s)"><path d="M83 482.8h23.2v18.3H83z" fill="#f5a142"/></g></g><g transform="translate(159 364.2)" clip-path="url(#u)"><g transform="translate(-58.8 -493.3)" clip-path="url(#s)"><path d="M53 487.5h23.2v18.2H53z" fill="#f5a142"/></g></g><g transform="translate(354.8 359.5)" clip-path="url(#v)"><g transform="translate(-254.8 -488.7)" clip-path="url(#s)"><path d="M248.9 482.8H357v24.5H249z" fill="#f58b36"/></g></g><g transform="translate(386.4 359.7)" clip-path="url(#w)"><g transform="translate(-286.3 -488.9)" clip-path="url(#s)"><path d="M280.5 483H311v20.9h-30.6z" fill="#f5a142"/></g></g><g transform="translate(159.5 374.5)" clip-path="url(#x)"><g transform="translate(-59.4 -503.7)" clip-path="url(#s)"><g transform="translate(58.4 503)" clip-path="url(#y)"><g transform="translate(1 .7)" clip-path="url(#x)"><g transform="translate(-.6 -.5)" clip-path="url(#z)"><path d="M-12.5-117.4h346.8V75.4H-12.5z" transform="translate(-1.6 -20.1)" fill="url(#d)"/></g></g></g></g></g><g transform="translate(156.7 318)" clip-path="url(#A)"><g transform="translate(-56.7 -447.2)" clip-path="url(#s)"><g transform="translate(56 446.2)" clip-path="url(#B)"><g transform="translate(.7 1)" clip-path="url(#A)"><g transform="translate(-.2 -.5)" clip-path="url(#C)"><path d="M-10.2-69.4h346.8v192.8H-10.2z" transform="translate(-1.6 -11.7)" fill="url(#E)"/></g></g></g></g></g><g transform="translate(206.6 319.6)" clip-path="url(#F)"><g transform="translate(-106.6 -448.7)" clip-path="url(#s)"><g transform="translate(105.3 447)" clip-path="url(#G)"><g transform="translate(1.3 1.7)" clip-path="url(#F)"><g transform="translate(-.8 -.8)" clip-path="url(#H)"><path d="M-52.6-70.7h346.8V122H-52.6z" transform="translate(-8.5 -11.6)" fill="url(#f)"/></g></g></g></g></g><g clip-path="url(#s)" transform="translate(100 -129.2)"><g clip-path="url(#I)" transform="translate(89.6 448)"><path fill="url(#J)" d="M0 0h21.2v41.1H0z"/></g></g><g transform="translate(182 329)" clip-path="url(#K)"><g transform="translate(-81.9 -458.1)" clip-path="url(#s)"><g transform="translate(81.4 456.9)" clip-path="url(#L)"><g transform="translate(.4 1.2)" clip-path="url(#K)"><g transform="translate(-.8 -.8)" clip-path="url(#M)"><path d="M-31.6-78.7h346.8v192.8H-31.6z" transform="translate(-4.8 -13)" fill="url(#f)"/></g></g></g></g></g><g clip-path="url(#s)" transform="translate(100 -129.2)"><g clip-path="url(#O)" transform="translate(60.9 448)"><path fill="url(#P)" d="M0 0h34.1v41.1H0z"/></g><g clip-path="url(#Q)" transform="translate(89 504.4)"><path fill="url(#R)" d="M0 0h18.8v35.3H0z"/></g></g><g transform="translate(184.2 376)" clip-path="url(#S)"><g transform="translate(-84.2 -505.2)" clip-path="url(#s)"><g transform="translate(83 504.6)" clip-path="url(#T)"><g transform="translate(1 .6)" clip-path="url(#S)"><g transform="translate(-.7 -.9)" clip-path="url(#U)"><path d="M-33.6-118.7h346.8V74H-33.6z" transform="translate(-5.2 -20)" fill="url(#W)"/></g></g></g></g></g><g clip-path="url(#s)" transform="translate(100 -129.2)"><g clip-path="url(#X)" transform="translate(63.7 504.4)"><path fill="url(#Y)" d="M0 0h30.6v35.3H0z"/></g></g><g transform="translate(146 276.2)" clip-path="url(#Z)"><g transform="translate(-46 -405.4)" clip-path="url(#s)"><path d="M40.1 399.5H120v50.4H40z" fill="#f58b36"/></g></g><g transform="translate(146.8 277)" clip-path="url(#aa)"><g transform="translate(-46.7 -406.1)" clip-path="url(#s)"><path d="M40.8 400.3H117V415H40.8z" fill="#be5020"/></g></g><g transform="translate(155.5 314.8)" clip-path="url(#ab)"><g transform="translate(-55.4 -444)" clip-path="url(#s)"><path d="M49.6 438.1H123v56.5H49.6z" fill="#5f4d5d"/></g></g><g transform="translate(158.3 372.3)" clip-path="url(#ac)"><g transform="translate(-58.2 -501.5)" clip-path="url(#s)"><path d="M52.4 495.6h74.1v50H52.3z" fill="#5f4d5d"/></g></g><g transform="translate(207.5 315.8)" clip-path="url(#ad)"><g transform="translate(-107.4 -445)" clip-path="url(#s)"><g transform="translate(107 444.5)" clip-path="url(#ae)"><g transform="translate(.5 .4)" clip-path="url(#ad)"><g transform="translate(-.5 -.6)" clip-path="url(#af)"><path d="M-53.4-67.5h346.8v192.8H-53.4z" transform="translate(-9 -11.3)" fill="url(#h)"/></g></g></g></g></g><g transform="translate(206.5 315.8)" clip-path="url(#ag)"><g transform="translate(-106.4 -445)" clip-path="url(#s)"><path d="M100.5 439h12v15.4h-12z" fill="#c6919a"/></g></g><g transform="translate(156.6 315.8)" clip-path="url(#ah)"><g transform="translate(-56.6 -445)" clip-path="url(#s)"><g transform="translate(56 444.5)" clip-path="url(#ai)"><g transform="translate(.6 .4)" clip-path="url(#ah)"><g transform="translate(-.1 -.6)" clip-path="url(#aj)"><path d="M-10.1-67.5h346.8v192.8H-10.1z" transform="translate(-1.7 -11.3)" fill="url(#h)"/></g></g></g></g></g><g transform="translate(147.6 314.8)" clip-path="url(#al)"><g transform="translate(-47.6 -444)" clip-path="url(#s)"><path d="M41.7 438.1h19.8v15H41.7z" fill="#c6919a"/></g></g><g transform="translate(155.5 314.8)" clip-path="url(#am)"><g transform="translate(-55.4 -444)" clip-path="url(#s)"><path d="M49.6 438.1h69.9v16.3h-70z" fill="#4a2c38"/></g></g><g transform="translate(210.3 373.3)" clip-path="url(#an)"><g transform="translate(-110.2 -502.4)" clip-path="url(#s)"><g transform="translate(109.4 502.1)" clip-path="url(#ao)"><g transform="translate(.8 .3)" clip-path="url(#an)"><g transform="translate(-.9 -.5)" clip-path="url(#ap)"><path d="M-55.8-116.4H291V76.4H-55.8z" transform="translate(-8.9 -20)" fill="url(#ar)"/></g></g></g></g></g><g transform="translate(185.2 373.3)" clip-path="url(#as)"><g transform="translate(-85 -502.4)" clip-path="url(#s)"><path d="M79.2 496.6h36v13.8h-36z" fill="#c6919a"/></g></g><g transform="translate(185.2 373.3)" clip-path="url(#at)"><g transform="translate(-85 -502.4)" clip-path="url(#s)"><g transform="translate(84.7 502.1)" clip-path="url(#au)"><g transform="translate(.4 .3)" clip-path="url(#at)"><g transform="translate(-.4 -.5)" clip-path="url(#av)"><path d="M-34.4-116.4h346.8V76.4H-34.4z" transform="translate(-5.6 -20)" fill="url(#ar)"/></g></g></g></g></g><g transform="translate(159.4 373.3)" clip-path="url(#ax)"><g transform="translate(-59.3 -502.4)" clip-path="url(#s)"><path d="M53.5 496.6H90V510H53.5z" fill="#c6919a"/></g></g><g transform="translate(159.4 373.3)" clip-path="url(#ay)"><g transform="translate(-59.3 -502.4)" clip-path="url(#s)"><g transform="translate(58.4 502.1)" clip-path="url(#az)"><g transform="translate(1 .3)" clip-path="url(#ay)"><g transform="translate(-.6 -.5)" clip-path="url(#aA)"><path d="M-12.5-116.4h346.8V76.4H-12.5z" transform="translate(-1.6 -20)" fill="url(#ar)"/></g></g></g></g></g><g transform="translate(150 372.3)" clip-path="url(#aC)"><g transform="translate(-49.9 -501.5)" clip-path="url(#s)"><path d="M44 495.6h11.8v13.8H44z" fill="#c6919a"/></g></g><g transform="translate(158.3 372.3)" clip-path="url(#aD)"><g transform="translate(-58.2 -501.5)" clip-path="url(#s)"><path d="M52.4 495.6h71v14.8h-71z" fill="#4a2c38"/></g></g><g transform="translate(145.5 275.6)" clip-path="url(#aE)"><g transform="translate(-45.4 -404.8)" clip-path="url(#s)"><path d="M39.5 399h77.8v164.3H39.5z" fill="#fffae3"/></g></g><g transform="translate(378 319)" clip-path="url(#aF)"><g transform="translate(-277.8 -448.2)" clip-path="url(#s)"><g transform="translate(277.3 447)" clip-path="url(#aG)"><g transform="translate(.5 1.2)" clip-path="url(#aF)"><g transform="translate(-.4 -.3)" clip-path="url(#aH)"><path d="M-198.3-70.3h346.8v192.8h-346.8z" transform="translate(-34.4 -12)" fill="url(#aJ)"/></g></g></g></g></g><g transform="translate(374.9 375.8)" clip-path="url(#aK)"><g transform="translate(-274.8 -505)" clip-path="url(#s)"><g transform="translate(273.2 504.6)" clip-path="url(#aL)"><g transform="translate(1.6 .4)" clip-path="url(#aK)"><g transform="translate(-.9 -.6)" clip-path="url(#aM)"><path d="M-195.8-118.5H151V74.3h-346.8z" transform="translate(-33.5 -20.2)" fill="url(#aO)"/></g></g></g></g></g><g transform="translate(415.6 359.5)" clip-path="url(#aP)"><g transform="translate(-315.5 -488.7)" clip-path="url(#s)"><g transform="translate(315.2 488.2)" clip-path="url(#aQ)"><g transform="translate(.3 .5)" clip-path="url(#aP)"><g transform="translate(-.4 -.8)" clip-path="url(#aR)"><path d="M-230.4-104.4h346.8V88.4h-346.8z" transform="translate(-40 -18)" fill="url(#aS)"/></g></g></g></g></g><g transform="translate(414.5 321.4)" clip-path="url(#aT)"><g transform="translate(-314.5 -450.6)" clip-path="url(#s)"><g transform="translate(313.5 450.3)" clip-path="url(#aU)"><g transform="translate(1 .3)" clip-path="url(#aT)"><g transform="translate(-.6 -.4)" clip-path="url(#aV)"><path d="M-229.5-72.3h346.8v192.8h-346.8z" transform="translate(-39.7 -12.3)" fill="url(#aX)"/></g></g></g></g></g><g clip-path="url(#s)" transform="translate(100 -129.2)"><g clip-path="url(#I)" transform="translate(309.1 449.1)"><path fill="url(#aY)" d="M0 0h21.2v41.1H0z"/></g></g><g transform="translate(413.4 359.5)" clip-path="url(#aZ)"><g transform="translate(-380.7 -593.8)" clip-path="url(#ba)"><g transform="translate(379 593.2)" clip-path="url(#bb)"><g transform="translate(1.8 .6)" clip-path="url(#bc)"><g transform="translate(-.7 -1)" clip-path="url(#bd)"><path d="M-228.2-104.2h421.4v234.3h-421.4z" transform="translate(-97.5 -44.4)" fill="url(#aX)"/></g></g></g></g></g><g transform="translate(393.5 359.5)" clip-path="url(#bf)"><g transform="translate(-293.4 -488.7)" clip-path="url(#s)"><g transform="translate(293 488.2)" clip-path="url(#bg)"><g transform="translate(.5 .5)" clip-path="url(#bf)"><g transform="translate(-.7 -.8)" clip-path="url(#bh)"><path d="M-211.6-104.4h346.8V88.4h-346.8z" transform="translate(-36.5 -18)" fill="url(#aS)"/></g></g></g></g></g><g transform="translate(388.5 329)" clip-path="url(#bj)"><g transform="translate(-288.4 -458.1)" clip-path="url(#s)"><g transform="translate(288.8 456.9)" clip-path="url(#bk)"><g transform="translate(-.4 1.2)" clip-path="url(#bj)"><g transform="translate(-.4 -.8)" clip-path="url(#bl)"><path d="M-206.9-78.7H140v192.8h-346.8z" transform="translate(-36.5 -13)" fill="url(#aX)"/></g></g></g></g></g><g clip-path="url(#s)" transform="translate(100 -129.2)"><g clip-path="url(#bn)" transform="translate(282 450.2)"><path fill="url(#bo)" d="M0 0h32.9v40H0z"/></g></g><g transform="translate(412.9 377.6)" clip-path="url(#bp)"><g transform="translate(-312.8 -506.8)" clip-path="url(#s)"><g transform="translate(311.9 507)" clip-path="url(#bq)"><g transform="translate(1 -.3)" clip-path="url(#bp)"><g transform="translate(-.1)" clip-path="url(#br)"><path d="M-228.1-120h346.8V72.6H-228z" transform="translate(-40 -21)" fill="url(#bt)"/></g></g></g></g></g><g clip-path="url(#s)" transform="translate(100 -129.2)"><g clip-path="url(#bu)" transform="translate(309.1 506.1)"><path fill="url(#bv)" d="M0 0h18.8v34.1H0z"/></g></g><g transform="translate(389 377.6)" clip-path="url(#bw)"><g transform="translate(-289 -506.8)" clip-path="url(#s)"><g transform="translate(288.8 507)" clip-path="url(#bx)"><g transform="translate(0 -.3)" clip-path="url(#bw)"><g transform="translate(-.9)" clip-path="url(#by)"><path d="M-207.8-120H139V72.6h-346.8z" transform="translate(-35.6 -21)" fill="url(#bt)"/></g></g></g></g></g><g clip-path="url(#s)" transform="translate(100 -129.2)"><g clip-path="url(#bA)" transform="translate(283.8 506.1)"><path fill="url(#bB)" d="M0 0h30.6v34.1H0z"/></g></g><g transform="translate(451.7 276.2)" clip-path="url(#bC)"><g transform="translate(-351.6 -405.4)" clip-path="url(#s)"><path d="M345.7 399.5h49v50.4h-49z" fill="#993352"/></g></g><g transform="translate(451.2 314.8)" clip-path="url(#bD)"><g transform="translate(-351.2 -444)" clip-path="url(#s)"><path d="M345.3 438.1h47.9v56.5h-48z" fill="#a97995"/></g></g><g transform="translate(451.1 359.5)" clip-path="url(#bE)"><g transform="translate(-351 -488.7)" clip-path="url(#s)"><path d="M345.2 482.8h46.2v24.5h-46.2z" fill="#993352"/></g></g><g transform="translate(450.7 372.3)" clip-path="url(#bF)"><g transform="translate(-350.6 -501.5)" clip-path="url(#s)"><path d="M344.8 495.6h46v50h-46z" fill="#a97995"/></g></g><g transform="translate(450.5 410.6)" clip-path="url(#bG)"><g transform="translate(-350.5 -539.8)" clip-path="url(#s)"><path d="M344.6 533.9h44.7v29.4h-44.7z" fill="#a97995"/></g></g><g transform="translate(354.8 276.2)" clip-path="url(#bH)"><g transform="translate(-254.8 -405.4)" clip-path="url(#s)"><path d="M248.9 399.5h109v50.4h-109z" fill="#f58b36"/></g></g><g transform="translate(374.3 290.8)" clip-path="url(#bI)"><g transform="translate(-274.3 -420)" clip-path="url(#s)"><path d="M268.4 414.1h29v22.5h-29z" fill="#f5a142"/></g></g><g transform="translate(438.5 372.3)" clip-path="url(#bJ)"><g transform="translate(-338.4 -501.5)" clip-path="url(#s)"><path d="M332.5 495.6h13.3v50h-13.3z" fill="#5f4d5d"/></g></g><g transform="translate(328.5 242.8)" clip-path="url(#bK)"><g transform="translate(-228.4 -372)" clip-path="url(#s)"><path d="M222.6 366h86v110.2h-86z" fill="#993352"/></g></g><g transform="translate(329.7 341.1)" clip-path="url(#bL)"><g transform="translate(-229.6 -470.3)" clip-path="url(#s)"><path d="M223.7 464.4h37v99h-37z" fill="#a97995"/></g></g><g transform="translate(209.3 242.8)" clip-path="url(#bM)"><g transform="translate(-109.2 -372)" clip-path="url(#s)"><path d="M103.3 366h132.2v110.2H103.3z" fill="#f58b36"/></g></g><g transform="translate(285.4 360)" clip-path="url(#bN)"><g transform="translate(-185.3 -489.2)" clip-path="url(#s)"><path d="M179.4 483.3h41.3v63.4h-41.3z" fill="#bac53e"/></g></g><g transform="translate(285.4 357)" clip-path="url(#bO)"><g transform="translate(-185.3 -486.2)" clip-path="url(#s)"><path d="M179.4 480.3h41.3V521h-41.3z" fill="#bac53e"/></g></g><g transform="translate(250 354.7)" clip-path="url(#bP)"><g transform="translate(-149.9 -483.9)" clip-path="url(#s)"><path d="M144 478h76.7v68.7H144z" fill="#79991a"/></g></g><g transform="translate(238.3 345)" clip-path="url(#bQ)"><g transform="translate(-138.2 -474.1)" clip-path="url(#s)"><path d="M132.3 468.3h88.4v78.4h-88.4z" fill="#f58b36"/></g></g><g transform="translate(286.8 385.8)" clip-path="url(#bR)"><g transform="translate(-186.7 -515)" clip-path="url(#s)"><path d="M180.8 509.1H194V542h-13.2z" fill="#5f4d5d"/></g></g><g transform="translate(282.8 357)" clip-path="url(#bS)"><g transform="translate(-182.7 -486.2)" clip-path="url(#s)"><path d="M176.8 480.3h14.4v66.4h-14.4z" fill="#79991a"/></g></g><g transform="translate(252.6 357)" clip-path="url(#bT)"><g transform="translate(-152.5 -486.2)" clip-path="url(#s)"><path d="M146.7 480.3h43v66.4h-43z" fill="#bac53e"/></g></g><g transform="translate(280.8 385.8)" clip-path="url(#bU)"><g transform="translate(-180.7 -515)" clip-path="url(#s)"><path d="M174.8 509.1h13.4V542h-13.4z" fill="#5f4d5d"/></g></g><g transform="translate(290.3 367.6)" clip-path="url(#bV)"><g transform="translate(-190.3 -496.8)" clip-path="url(#s)"><g transform="translate(189.2 496.4)" clip-path="url(#bW)"><g transform="translate(1 .4)" clip-path="url(#bV)"><g transform="translate(-1 -.7)" clip-path="url(#bX)"><path d="M-123.8-111.6H223V81.2h-346.8z" transform="translate(-20.8 -18.9)" fill="url(#bZ)"/></g></g></g></g></g><g transform="translate(260.8 365.9)" clip-path="url(#ca)"><g transform="translate(-160.7 -495)" clip-path="url(#s)"><g transform="translate(160.4 494.7)" clip-path="url(#cb)"><g transform="translate(.3 .3)" clip-path="url(#ca)"><g transform="translate(-.8 -.1)" clip-path="url(#cc)"><path d="M-98.7-110.1h346.8V82.7H-98.7z" transform="translate(-16.5 -19.2)" fill="url(#ce)"/></g></g></g></g></g><g transform="translate(218.4 282.7)" clip-path="url(#cf)"><g transform="translate(-118.4 -411.8)" clip-path="url(#s)"><g transform="translate(117.6 411.6)" clip-path="url(#cg)"><g transform="translate(.7 .2)" clip-path="url(#cf)"><g transform="translate(-.8 -.4)" clip-path="url(#ch)"><path d="M-62.7-39.3h346.8v192.8H-62.7z" transform="translate(-10.2 -6.5)" fill="url(#cj)"/></g></g></g></g></g><g transform="translate(231.1 345)" clip-path="url(#ck)"><g transform="translate(-131 -474.1)" clip-path="url(#s)"><path d="M125.1 468.3h20.6v78.4h-20.6z" fill="#a97995"/></g></g><g transform="translate(254.1 292.3)" clip-path="url(#cl)"><g transform="translate(-154 -421.5)" clip-path="url(#s)"><g transform="translate(154.7 420.7)" clip-path="url(#cm)"><g transform="translate(-.6 .8)" clip-path="url(#cl)"><g transform="translate(0 -.6)" clip-path="url(#cn)"><path d="M-93-47.5h346.8v192.8H-93z" transform="translate(-16.3 -7.7)" fill="url(#cp)"/></g></g></g></g></g><g clip-path="url(#s)" transform="translate(100 -129.2)"><g clip-path="url(#cq)" transform="translate(151.7 410.7)"><path fill="url(#cr)" d="M0 0h22.3v47H0z"/></g></g><g transform="translate(226.2 282.7)" clip-path="url(#cs)"><g transform="translate(-126.1 -411.8)" clip-path="url(#s)"><g transform="translate(125.9 411.6)" clip-path="url(#ct)"><g transform="translate(.2 .2)" clip-path="url(#cs)"><g transform="translate(-.3 -.4)" clip-path="url(#cu)"><path d="M-69.3-39.3h346.8v192.8H-69.3z" transform="translate(-11.8 -6.5)" fill="url(#cp)"/></g></g></g></g></g><g clip-path="url(#s)" transform="translate(100 -129.2)"><g clip-path="url(#cw)" transform="translate(122.4 410.7)"><path fill="url(#cx)" d="M0 0h35.3v47H0z"/></g></g><g transform="translate(216.5 280.8)" clip-path="url(#cy)"><g transform="translate(-116.4 -410)" clip-path="url(#s)"><path d="M110.5 404.1h118.7v59.2H110.5z" fill="#5f4d5d"/></g></g><g transform="translate(312.4 360)" clip-path="url(#cz)"><g transform="translate(-212.3 -489.2)" clip-path="url(#s)"><path d="M206.4 483.3h14.3v20.9h-14.3z" fill="#927025"/></g></g><g transform="translate(285.4 357)" clip-path="url(#cA)"><g transform="translate(-185.3 -486.2)" clip-path="url(#s)"><path d="M179.4 480.3h41.3v22.4h-41.3z" fill="#927025"/></g></g><g transform="translate(250 354.7)" clip-path="url(#cB)"><g transform="translate(-149.9 -483.9)" clip-path="url(#s)"><path d="M144 478h76.7v68.7H144z" fill="#5f5610"/></g></g><g transform="translate(238.3 345)" clip-path="url(#cC)"><g transform="translate(-138.2 -474.1)" clip-path="url(#s)"><path d="M132.3 468.3h88.4v78.4h-88.4z" fill="#be5020"/></g></g><g transform="translate(282.8 357)" clip-path="url(#cD)"><g transform="translate(-182.7 -486.2)" clip-path="url(#s)"><path d="M176.8 480.3h14.4v22h-14.4z" fill="#5f5610"/></g></g><g transform="translate(252.6 357)" clip-path="url(#cE)"><g transform="translate(-152.5 -486.2)" clip-path="url(#s)"><path d="M146.7 480.3h42v66.4h-42z" fill="#927025"/></g></g><g transform="translate(290.1 360)" clip-path="url(#cF)"><g transform="translate(-190 -489.2)" clip-path="url(#s)"><g transform="translate(189.2 488.2)" clip-path="url(#cG)"><g transform="translate(.8 1)" clip-path="url(#cF)"><g transform="translate(-.8 -.2)" clip-path="url(#cH)"><path d="M-123.7-105.1h346.8V87.7h-346.8z" transform="translate(-21 -18.3)" fill="url(#cJ)"/></g></g></g></g></g><g transform="translate(256 360)" clip-path="url(#cK)"><g transform="translate(-156 -489.2)" clip-path="url(#s)"><g transform="translate(155.5 488.2)" clip-path="url(#cL)"><g transform="translate(.5 1)" clip-path="url(#cK)"><g transform="translate(-.8 -.2)" clip-path="url(#cM)"><path d="M-94.7-105.1h346.8V87.7H-94.7z" transform="translate(-15.8 -18.3)" fill="url(#cO)"/></g></g></g></g></g><g clip-path="url(#s)" transform="translate(100 -129.2)"><g clip-path="url(#cP)" transform="translate(164.7 494.8)"><path fill="url(#cQ)" d="M0 0h15.3v36.4H0z"/></g></g><g transform="translate(299.8 397.9)" clip-path="url(#cR)"><g transform="translate(-199.7 -527)" clip-path="url(#s)"><g transform="translate(199.1 527.7)" clip-path="url(#cS)"><g transform="translate(.6 -.6)" clip-path="url(#cR)"><g transform="translate(-1 -.4)" clip-path="url(#cT)"><path d="M-131.9-137.2H215V55.6h-346.8z" transform="translate(-22.1 -24)" fill="url(#cV)"/></g></g></g></g></g><g clip-path="url(#s)" transform="translate(100 -129.2)"><g clip-path="url(#cW)" transform="translate(194.6 497)"><path fill="url(#cX)" d="M0 0h12.9v32.9H0z"/></g></g><g transform="translate(362.3 372.3)" clip-path="url(#cY)"><g transform="translate(-262.2 -501.5)" clip-path="url(#s)"><path d="M256.3 495.6h89v50h-89z" fill="#5f4d5d"/></g></g><g transform="translate(363 314.8)" clip-path="url(#cZ)"><g transform="translate(-262.8 -444)" clip-path="url(#s)"><path d="M257 438.1h89.6v56.5H257z" fill="#5f4d5d"/></g></g><g transform="translate(364 359.5)" clip-path="url(#da)"><g transform="translate(-320.7 -593.8)" clip-path="url(#ba)"><path d="M312.2 586.7h15.6V601h-15.6z" fill="#c6919a"/></g></g><g transform="translate(354.8 359.5)" clip-path="url(#db)"><g transform="translate(-254.8 -488.7)" clip-path="url(#s)"><path d="M248.9 482.8h34.8v24.5H249z" fill="#be5020"/></g></g><g transform="translate(364 359.5)" clip-path="url(#dc)"><g transform="translate(-320.7 -593.8)" clip-path="url(#ba)"><g transform="translate(320 593.2)" clip-path="url(#dd)"><g transform="translate(.7 .6)" clip-path="url(#de)"><g transform="translate(-.7 -1)" clip-path="url(#df)"><path d="M-186.5-104.2H235v234.3h-421.4z" transform="translate(-79.2 -44.4)" fill="url(#dh)"/></g></g></g></g></g><g transform="translate(452 276.2)" clip-path="url(#di)"><g transform="translate(-352 -405.4)" clip-path="url(#s)"><path d="M346 399.5H358v15.9H346z" fill="#771d31"/></g></g><g transform="translate(354.8 276.2)" clip-path="url(#dj)"><g transform="translate(-254.8 -405.4)" clip-path="url(#s)"><path d="M248.9 399.5h109v50.4h-109z" fill="#be5020"/></g></g><g transform="translate(374.3 291)" clip-path="url(#dk)"><g transform="translate(-274.2 -420.2)" clip-path="url(#s)"><path d="M268.4 414.3h19.5v22.3h-19.5z" fill="#be5c28"/></g></g><g transform="translate(363.4 386.4)" clip-path="url(#dl)"><g transform="translate(-263.3 -515.6)" clip-path="url(#s)"><g transform="translate(262.5 514.5)" clip-path="url(#dm)"><g transform="translate(.8 1)" clip-path="url(#dl)"><g transform="translate(-1.1 -.6)" clip-path="url(#dn)"><path d="M-186-127.5h346.8V65.3H-186z" transform="translate(-31.5 -21.8)" fill="url(#dp)"/></g></g></g></g></g><g transform="translate(363.7 373.5)" clip-path="url(#dq)"><g transform="translate(-263.6 -502.7)" clip-path="url(#s)"><g transform="translate(263.3 502.1)" clip-path="url(#dr)"><g transform="translate(.3 .6)" clip-path="url(#dq)"><g transform="translate(-.2 -.7)" clip-path="url(#ds)"><path d="M-186.2-116.6h346.8V76.2h-346.8z" transform="translate(-32.5 -19.8)" fill="url(#dp)"/></g></g></g></g></g><g transform="translate(414.2 373.5)" clip-path="url(#du)"><g transform="translate(-314.2 -502.7)" clip-path="url(#s)"><path d="M308.3 496.8H320v14.4h-11.8z" fill="#c6919a"/></g></g><g transform="translate(414.2 373.5)" clip-path="url(#dv)"><g transform="translate(-314.2 -502.7)" clip-path="url(#s)"><g transform="translate(313.5 502.1)" clip-path="url(#dw)"><g transform="translate(.7 .6)" clip-path="url(#dv)"><g transform="translate(-.3 -.7)" clip-path="url(#dx)"><path d="M-229.2-116.6h346.8V76.2h-346.8z" transform="translate(-40 -19.8)" fill="url(#dp)"/></g></g></g></g></g><g transform="translate(451 372.3)" clip-path="url(#dz)"><g transform="translate(-351 -501.5)" clip-path="url(#s)"><path d="M345.1 495.6H357v15h-11.8z" fill="#84455b"/></g></g><g transform="translate(439 372.3)" clip-path="url(#dA)"><g transform="translate(-338.8 -501.5)" clip-path="url(#s)"><path d="M333 495.6h12.8v15.3H333z" fill="#4a2c38"/></g></g><g transform="translate(364 329)" clip-path="url(#dB)"><g transform="translate(-264 -458.1)" clip-path="url(#s)"><path d="M258 452.3h12.2v41H258z" fill="#c6919a"/></g></g><g transform="translate(364 329)" clip-path="url(#dC)"><g transform="translate(-264 -458.1)" clip-path="url(#s)"><g transform="translate(263.3 456.9)" clip-path="url(#dD)"><g transform="translate(.6 1.2)" clip-path="url(#dC)"><g transform="translate(-.6 -.8)" clip-path="url(#dE)"><path d="M-186.5-78.7h346.8v192.8h-346.8z" transform="translate(-32.2 -13)" fill="url(#dh)"/></g></g></g></g></g><g transform="translate(364.4 316)" clip-path="url(#dG)"><g transform="translate(-264.3 -445.2)" clip-path="url(#s)"><g transform="translate(263.3 444.5)" clip-path="url(#dH)"><g transform="translate(1 .7)" clip-path="url(#dG)"><g transform="translate(-1 -.8)" clip-path="url(#dI)"><path d="M-186.8-67.7H160V125h-346.8z" transform="translate(-31.8 -11)" fill="url(#dh)"/></g></g></g></g></g><g transform="translate(415 316)" clip-path="url(#dK)"><g transform="translate(-314.9 -445.2)" clip-path="url(#s)"><path d="M309 439.3h11.8V455H309z" fill="#c6919a"/></g></g><g transform="translate(415 316)" clip-path="url(#dL)"><g transform="translate(-314.9 -445.2)" clip-path="url(#s)"><g transform="translate(313.5 444.5)" clip-path="url(#dM)"><g transform="translate(1.4 .7)" clip-path="url(#dL)"><g transform="translate(-1 -.8)" clip-path="url(#dN)"><path d="M-229.8-67.7H117V125h-346.8z" transform="translate(-39.4 -11)" fill="url(#dh)"/></g></g></g></g></g><g transform="translate(362.3 372.3)" clip-path="url(#dP)"><g transform="translate(-262.2 -501.5)" clip-path="url(#s)"><path d="M256.3 495.6h89v50h-89z" fill="#4a2c38"/></g></g><g transform="translate(363 314.8)" clip-path="url(#dQ)"><g transform="translate(-262.8 -444)" clip-path="url(#s)"><path d="M257 438.1h89.6v56.5H257z" fill="#4a2c38"/></g></g><g transform="translate(208.6 242.2)" clip-path="url(#dR)"><g transform="translate(-108.5 -371.3)" clip-path="url(#s)"><path d="M102.7 365.5h206v197.8h-206z" fill="#fffae3"/></g></g><g transform="translate(209.9 243.3)" clip-path="url(#dS)"><g transform="translate(-109.8 -372.5)" clip-path="url(#s)"><path d="M104 366.6h130.3V384H104z" fill="#be5020"/></g></g><g transform="translate(209.9 243.3)" clip-path="url(#dT)"><g transform="translate(-109.8 -372.4)" clip-path="url(#s)"><path d="M104 366.6h130.3v11.9H104z" fill="#c68f89"/></g></g><g transform="translate(281 236.9)" clip-path="url(#dU)"><g transform="translate(-181 -366)" clip-path="url(#s)"><path d="M175 360.2h136v18.1H175z" fill="#a97995"/></g></g><g transform="translate(426.1 270.2)" clip-path="url(#dV)"><g transform="translate(-326 -399.3)" clip-path="url(#s)"><path d="M320.1 393.5h77v18.1h-77z" fill="#a97995"/></g></g><g transform="translate(234.3 332.3)" clip-path="url(#dW)"><g transform="translate(-134.2 -461.4)" clip-path="url(#s)"><path d="M128.3 455.6h23.3v18.2h-23.3z" fill="#f5a142"/></g></g><g transform="translate(299.5 329.2)" clip-path="url(#dX)"><g transform="translate(-199.4 -458.3)" clip-path="url(#s)"><path d="M193.5 452.5h30.7v20.9h-30.7z" fill="#f5a142"/></g></g><g transform="translate(218.1 264.8)" clip-path="url(#dY)"><g transform="translate(-118 -394)" clip-path="url(#s)"><path d="M112.2 388h29v22.6h-29z" fill="#f5a142"/></g></g><g transform="translate(309 255.1)" clip-path="url(#dZ)"><g transform="translate(-208.9 -384.3)" clip-path="url(#s)"><path d="M203 378.4h23.2v18.3H203z" fill="#f5a142"/></g></g><g transform="translate(304.6 268.4)" clip-path="url(#ea)"><g transform="translate(-204.5 -397.6)" clip-path="url(#s)"><path d="M198.6 391.7h23.2V410h-23.2z" fill="#f5a142"/></g></g><g transform="translate(155 286.3)" clip-path="url(#eb)"><g transform="translate(-55 -415.5)" clip-path="url(#s)"><path d="M49.1 409.6h23.2v18.2H49.1z" fill="#f5a142"/></g></g><g transform="translate(171.8 301.3)" clip-path="url(#ec)"><g transform="translate(-71.7 -430.5)" clip-path="url(#s)"><path d="M65.8 424.6h23.3v18.2H65.8z" fill="#f5a142"/></g></g><g transform="translate(255.2 271.7)" clip-path="url(#ed)"><g transform="translate(-155.2 -400.9)" clip-path="url(#s)"><path d="M149.3 395h23.2v18.2h-23.2z" fill="#f5a142"/></g></g><g transform="translate(435 287.9)" clip-path="url(#ee)"><g transform="translate(-335 -417)" clip-path="url(#s)"><path d="M329.1 411.2h23.2v18.3h-23.2z" fill="#f5a142"/></g></g><g transform="translate(430.7 301.2)" clip-path="url(#ef)"><g transform="translate(-330.6 -430.4)" clip-path="url(#s)"><path d="M324.7 424.5H348v18.3h-23.2z" fill="#f5a142"/></g></g><g transform="translate(403.5 298)" clip-path="url(#eg)"><g transform="translate(-303.4 -427.1)" clip-path="url(#s)"><path d="M297.5 421.3h23.2v18.2h-23.2z" fill="#f5a142"/></g></g><g transform="translate(433.2 364.2)" clip-path="url(#eh)"><g transform="translate(-333.2 -493.4)" clip-path="url(#s)"><path d="M327.3 487.5h23.2v18.3h-23.2z" fill="#f5a142"/></g></g><g transform="translate(261 250)" clip-path="url(#ei)"><g transform="translate(-160.9 -379.2)" clip-path="url(#s)"><path d="M155 373.3h30.9v22.3H155z" fill="#f5a142"/></g></g><g transform="translate(192.3 293)" clip-path="url(#ej)"><g transform="translate(-92.2 -422.1)" clip-path="url(#s)"><path d="M86.3 416.2h23.2v18.3H86.3z" fill="#f5a142"/></g></g><g transform="translate(187.8 285.2)" clip-path="url(#ek)"><g transform="translate(-87.7 -414.4)" clip-path="url(#s)"><path d="M81.8 408.5H105v18.3H81.8z" fill="#f5a142"/></g></g><g transform="translate(233.5 414)" clip-path="url(#el)"><g transform="translate(-133.4 -543.2)" clip-path="url(#s)"><path d="M127.6 537.3h86.2v13.4h-86.2z" fill="#ffc78b"/></g></g><g transform="translate(295.8 411.6)" clip-path="url(#em)"><g transform="translate(-195.8 -540.8)" clip-path="url(#s)"><path d="M189.9 535h30.8v28.3h-30.8z" fill="#a97995"/></g></g><g transform="translate(227.1 418.5)" clip-path="url(#en)"><g transform="translate(-127 -547.6)" clip-path="url(#s)"><path d="M121.1 541.8h88.5v13H121z" fill="#ffc78b"/></g></g><g transform="translate(221 422.6)" clip-path="url(#eo)"><g transform="translate(-121 -551.7)" clip-path="url(#s)"><path d="M115 545.8h90.6v12.9h-90.5z" fill="#ffc78b"/></g></g><g transform="translate(467.3 322.6)" clip-path="url(#ep)"><g transform="translate(-367.3 -451.7)" clip-path="url(#s)"><path d="M361.4 445.9h21.1V496h-21.1z" fill="#bc4d79"/></g></g><g transform="translate(465.5 322.6)" clip-path="url(#eq)"><g transform="translate(-365.5 -451.7)" clip-path="url(#s)"><path d="M359.6 445.9h20.7V496h-20.7z" fill="#993352"/></g></g><g transform="translate(461.2 348)" clip-path="url(#er)"><g transform="translate(-361.2 -477.1)" clip-path="url(#s)"><path d="M355.3 471.2h33V497h-33z" fill="#46384d"/></g></g><g transform="translate(467.3 377.8)" clip-path="url(#es)"><g transform="translate(-367.3 -507)" clip-path="url(#s)"><path d="M361.4 501.1h21.1v46h-21.1z" fill="#bc4d79"/></g></g><g transform="translate(465.5 377.8)" clip-path="url(#et)"><g transform="translate(-365.5 -507)" clip-path="url(#s)"><path d="M359.6 501.1h20.7v46h-20.7z" fill="#993352"/></g></g><g transform="translate(461.2 399)" clip-path="url(#eu)"><g transform="translate(-361.2 -528.1)" clip-path="url(#s)"><path d="M355.3 522.2h33V548h-33z" fill="#46384d"/></g></g><g transform="translate(464.1 362)" clip-path="url(#ev)"><g transform="translate(-364 -491.2)" clip-path="url(#s)"><path d="M358.2 485.3h26.6V547h-26.6z" fill="#46384d"/></g></g></g><g filter="url(#ew)"><text transform="translate(270 268)" fill="#fff7cc" font-size="13" font-family="Quicksand-Bold, Quicksand" font-weight="700"><tspan x="-55" y="0">EDUNIFY SCHOOL</tspan></text></g></g></svg>